<svg xmlns="http://www.w3.org/2000/svg" xmlns:xlink="http://www.w3.org/1999/xlink" version="1.1" x="0px" y="0px" viewBox="0 0 164 164" enable-background="new 0 0 164 164" xml:space="preserve"><path fill-rule="evenodd" clip-rule="evenodd" fill="rgba(0, 0, 0, 0.6)" d="M82.35,66.403c4.432,10.076,12.563,18.5,15.596,27.958  c9.074,28.313-40.381,28.536-31.18-0.033C69.806,84.885,77.925,76.467,82.35,66.403L82.35,66.403z M74.712,87.944  c-2.49,5.644-6.974,14.668-0.691,18.1c3.86,2.109,8.239-2.047,3.856-5.792C76.028,98.669,74.012,95.815,74.712,87.944L74.712,87.944  z M50.035,113.329c-7.035-0.783-14.149-1.835-21.357-3.179c0-14.045,0-28.09,0-42.136c6.754,1.409,13.531,2.535,20.318,3.39  c-3.561,5.879-5.61,12.775-5.61,20.149C43.386,99.621,45.837,107.115,50.035,113.329L50.035,113.329z M59.749,114.549  c12.486,12.488,32.985,12.488,45.474,0c12.487-12.487,12.487-32.986,0-45.474c-12.488-12.488-32.987-12.488-45.474,0  C47.26,81.563,47.26,102.062,59.749,114.549L59.749,114.549z M56.154,118.145c14.463,14.461,38.202,14.461,52.663,0  c14.463-14.463,14.463-38.202,0-52.664c-14.461-14.462-38.2-14.462-52.663,0C41.691,79.943,41.691,103.682,56.154,118.145  L56.154,118.145z M82.34,22.539c-25.252,0.372-52.473-6.077-52.473-11.046S53.551,0.82,82.526,0.82  c28.975,0,52.286,5.704,52.286,10.673S107.592,22.166,82.34,22.539L82.34,22.539z M136.003,62.42  c-8.091,1.441-16.218,2.593-24.403,3.421C104.46,57.724,93.999,52.6,82.339,52.6c-11.694,0-22.186,5.155-29.325,13.316  c-8.003-0.807-16.108-1.964-24.336-3.496c0-14.045,0-28.091,0-42.137c38.009,10.813,74.053,10.374,107.325,0  C136.003,34.329,136.003,48.375,136.003,62.42L136.003,62.42z M136.003,157.882c0-14.045,0-28.091,0-42.136  c-8.868,1.773-17.82,3.126-26.821,4.038c-6.986,6.646-16.438,10.725-26.842,10.725c-10.352,0-19.76-4.04-26.736-10.627  c-8.996-0.898-17.98-2.271-26.925-4.136c0,14.045,0,28.091,0,42.136C60.051,167.14,107.843,166.261,136.003,157.882L136.003,157.882  z M136.003,110.15c-7.068,1.26-14.163,2.298-21.301,3.091c4.163-6.198,6.592-13.658,6.592-21.688c0-7.409-2.067-14.335-5.66-20.232  c6.827-0.854,13.621-1.958,20.369-3.307C136.003,82.06,136.003,96.105,136.003,110.15z"/></svg>