<svg xmlns="http://www.w3.org/2000/svg" viewBox="0 0 60 60" x="0px" y="0px"><path fill="rgba(0, 0, 0, 0.6)" fill-rule="evenodd" d="M718,944 C719.104569,944 720,944.895431 720,946 L720,958 C720,959.104569 719.104569,960 718,960 L662,960 C660.895431,960 660,959.104569 660,958 L660,946 C660,944.895431 660.895431,944 662,944 L664.128894,944 L666.00443,915.866962 C666.074469,914.816366 666.947072,914 668,914 L672,914 C673.052928,914 673.925531,914.816366 673.99557,915.866962 L675.871106,944 L682.128894,944 L684.00443,915.866962 C684.074469,914.816366 684.947072,914 686,914 L690,914 C691.052928,914 691.925531,914.816366 691.99557,915.866962 L693.871106,944 L718,944 Z M670,954 C671.104569,954 672,953.104569 672,952 C672,950.895431 671.104569,950 670,950 C668.895431,950 668,950.895431 668,952 C668,953.104569 668.895431,954 670,954 Z M688,954 C689.104569,954 690,953.104569 690,952 C690,950.895431 689.104569,950 688,950 C686.895431,950 686,950.895431 686,952 C686,953.104569 686.895431,954 688,954 Z M679,954 C680.104569,954 681,953.104569 681,952 C681,950.895431 680.104569,950 679,950 C677.895431,950 677,950.895431 677,952 C677,953.104569 677.895431,954 679,954 Z M698,952.990631 C698,953.54809 698.444631,954 699.000872,954 L712.999128,954 C713.551894,954 714,953.556647 714,952.990631 L714,951.009369 C714,950.45191 713.555369,950 712.999128,950 L699.000872,950 C698.448106,950 698,950.443353 698,951.009369 L698,952.990631 Z M689.561738,909.24939 C688.871719,910.111914 687.613134,910.251757 686.75061,909.561738 C685.888086,908.871719 685.748243,907.613134 686.438262,906.75061 C686.460881,906.722337 686.54645,906.591606 686.641398,906.393797 C687.005242,905.63579 687.005242,904.958114 686.438262,904.24939 C684.78302,902.180337 684.78302,899.895049 685.752509,897.875279 C685.990894,897.378643 686.238659,897.000115 686.438262,896.75061 C687.128281,895.888086 688.386866,895.748243 689.24939,896.438262 C690.111914,897.128281 690.251757,898.386866 689.561738,899.24939 C689.539119,899.277663 689.45355,899.408394 689.358602,899.606203 C688.994758,900.36421 688.994758,901.041886 689.561738,901.75061 C691.21698,903.819663 691.21698,906.104951 690.247491,908.124721 C690.009106,908.621357 689.761341,908.999885 689.561738,909.24939 Z M671.561738,909.24939 C670.871719,910.111914 669.613134,910.251757 668.75061,909.561738 C667.888086,908.871719 667.748243,907.613134 668.438262,906.75061 C668.460881,906.722337 668.54645,906.591606 668.641398,906.393797 C669.005242,905.63579 669.005242,904.958114 668.438262,904.24939 C666.78302,902.180337 666.78302,899.895049 667.752509,897.875279 C667.990894,897.378643 668.238659,897.000115 668.438262,896.75061 C669.128281,895.888086 670.386866,895.748243 671.24939,896.438262 C672.111914,897.128281 672.251757,898.386866 671.561738,899.24939 C671.539119,899.277663 671.45355,899.408394 671.358602,899.606203 C670.994758,900.36421 670.994758,901.041886 671.561738,901.75061 C673.21698,903.819663 673.21698,906.104951 672.247491,908.124721 C672.009106,908.621357 671.761341,908.999885 671.561738,909.24939 Z" transform="translate(-660 -896)"/></svg>